<svg width="13" height="13" viewBox="0 0 13 13" fill="none" xmlns="http://www.w3.org/2000/svg">
<path fill-rule="evenodd" clip-rule="evenodd" d="M9.83183 8.26283C9.04181 8.26291 8.30473 8.66005 7.87014 9.31979C7.12734 8.95727 6.25892 8.95727 5.51612 9.31979C4.8936 8.36794 3.68065 7.99563 2.63132 8.43432C1.58199 8.87301 0.994935 9.99784 1.23512 11.1095C1.4753 12.2212 2.47435 13.0034 3.61119 12.9697C4.74804 12.9361 5.69911 12.0963 5.87315 10.9723C6.33361 10.5367 7.05422 10.5367 7.51468 10.9723C7.70613 12.2095 8.83378 13.0794 10.079 12.9505C11.3243 12.8217 12.2499 11.7393 12.184 10.4892C12.1181 9.23902 11.0837 8.26 9.83183 8.26283ZM3.55443 11.4015C3.12107 11.4015 2.76976 11.0502 2.76976 10.6169C2.76976 10.1835 3.12107 9.83218 3.55443 9.83218C3.9878 9.83218 4.33911 10.1835 4.33911 10.6169C4.33911 11.0502 3.9878 11.4015 3.55443 11.4015ZM9.04715 10.6169C9.04715 11.0502 9.39846 11.4015 9.83183 11.4015C10.2652 11.4015 10.6165 11.0502 10.6165 10.6169C10.6165 10.1835 10.2652 9.83218 9.83183 9.83218C9.39846 9.83218 9.04715 10.1835 9.04715 10.6169Z" fill="white"/>
<path d="M10.4596 3.55479L9.83189 0.416092H3.5545L2.92676 3.55479H10.4596Z" fill="white"/>
<path d="M10.6168 4.33946H2.77004L0.416016 6.69349H12.9708L10.6168 4.33946Z" fill="white"/>
</svg>
