<svg width="199" height="568" viewBox="0 0 199 568" fill="none" xmlns="http://www.w3.org/2000/svg">
<path d="M47.6445 -15.2889C26.1192 -10.6454 8.93871 6.84086 2.5316 27.6053C-4.10307 49.1164 2.60271 71.6942 19.1645 86.7698C35.1574 101.312 58.9867 108.174 79.68 100.224C99.0365 92.7858 115.854 71.5733 106.51 50.368C98.6169 32.4622 75.2214 21.9946 56.9458 29.8097C38.6703 37.6249 29.7885 59.4986 33.1307 78.3857C37.3547 102.215 60.5085 115.364 81.6783 122.027C107.321 130.148 137.195 131.342 158.201 150.03C174.763 164.764 182.884 187.719 181.234 209.643C180.479 220.629 176.996 231.254 171.1 240.555C164.58 250.645 153.451 259.285 141.177 260.466C127.524 261.781 117.71 251.307 116.722 238.158C115.648 223.701 124.409 211.065 132.736 200.092C148.644 179.143 169.003 158.286 195.428 151.829C218.83 146.14 246.976 152.583 259.385 174.862C273.451 200.121 263.438 230.265 248.526 252.551C240.434 264.64 230.812 275.669 221.34 286.684C211.712 297.884 201.998 309.028 192.896 320.683C175.673 342.784 160.647 367.04 154.169 394.588C148.089 420.43 149.902 448.22 164.245 471.111C177.572 492.444 199.09 507.499 221.973 517.148C250.56 529.237 281.636 533.988 311.929 539.776L409.095 558.35L455.687 567.253C456.69 567.445 457.109 565.909 456.114 565.71L360.114 547.356C328.882 541.39 297.429 536.107 266.411 529.109C238.798 522.873 211.1 513.792 188.75 495.822C178.852 487.865 170.148 478.315 163.826 467.25C157.039 455.163 153.184 441.652 152.569 427.804C149.476 367.566 194.091 321.408 230.165 278.82C247.346 258.524 265.01 235.925 267.371 208.42C268.402 196.53 266.517 184.1 260.551 173.639C255.055 164.2 246.559 156.871 236.416 152.818C214.528 143.822 189.874 148.708 170.404 161.102C159.524 168.05 150.044 176.996 141.582 186.667C132.942 196.551 123.904 207.41 118.656 219.534C114.19 229.86 113.173 242.581 119.758 252.295C125.646 260.971 136.071 263.716 145.934 261.234C167.417 255.829 179.826 234.076 182.45 213.412C185.045 192.917 179.051 171.193 165.653 155.378C148.587 135.26 121.948 130.432 97.5929 124.644C74.5245 119.168 46.2009 109.931 36.7929 85.6178C29.2765 66.1973 37.3405 40.4622 56.896 31.5733C76.6507 22.5778 103.573 36.5511 107.186 58.0906C111.524 83.904 83.3209 102.251 60.5298 101.988C37.7387 101.724 15.4525 87.0542 6.05871 66.2755C-3.70485 44.6435 3.15026 19.0435 19.3138 2.44619C27.089 -5.65893 37.0865 -11.2849 48.0498 -13.7245C49.0667 -13.9449 48.6258 -15.4809 47.6445 -15.2889Z" fill="#D1ECFD"/>
</svg>
