<svg width="13" height="13" viewBox="0 0 13 13" fill="none" xmlns="http://www.w3.org/2000/svg">
<path fill-rule="evenodd" clip-rule="evenodd" d="M11.9104 3.5548L12.1074 3.89691L7.26282 6.69349L12.1074 9.48772L11.9104 9.82748C10.4907 12.2891 7.59433 13.4899 4.84931 12.755C2.10429 12.0201 0.195312 9.53283 0.195312 6.69114C0.195312 3.84945 2.10429 1.36218 4.84931 0.627291C7.59433 -0.107598 10.4907 1.09321 11.9104 3.5548ZM7.65516 3.16246C7.2218 3.16246 6.87049 3.51377 6.87049 3.94713C6.87049 4.3805 7.2218 4.73181 7.65516 4.73181C8.08852 4.73181 8.43983 4.3805 8.43983 3.94713C8.43983 3.51377 8.08852 3.16246 7.65516 3.16246Z" fill="white"/>
</svg>
