<svg width="213" height="582" viewBox="0 0 213 582" fill="none" xmlns="http://www.w3.org/2000/svg">
<path d="M47.6772 0.016548C26.1369 4.65552 8.94444 22.1245 2.53287 42.8684C-4.10641 64.3583 2.60403 86.9137 19.1773 101.974C35.1814 116.502 59.0273 123.358 79.735 115.415C99.105 107.984 115.934 86.793 106.584 65.6086C98.6851 47.7205 75.2733 37.2633 56.985 45.0707C38.6967 52.8781 29.8087 74.7302 33.1533 93.5987C37.3802 117.405 60.5501 130.54 81.7346 137.196C107.395 145.309 137.29 146.503 158.311 165.172C174.884 179.892 183.01 202.824 181.36 224.726C180.604 235.701 177.119 246.316 171.219 255.607C164.694 265.688 153.557 274.32 141.275 275.499C127.612 276.813 117.792 266.349 116.803 253.213C115.728 238.771 124.495 226.147 132.828 215.185C148.747 194.257 169.12 173.42 195.563 166.97C218.982 161.286 247.148 167.723 259.565 189.98C273.641 215.214 263.621 245.328 248.699 267.592C240.601 279.669 230.973 290.687 221.494 301.692C211.859 312.881 202.138 324.013 193.03 335.656C175.795 357.736 160.759 381.968 154.276 409.489C148.192 435.305 150.006 463.068 164.359 485.936C177.695 507.248 199.228 522.288 222.127 531.928C250.734 544.005 281.831 548.751 312.146 554.533L409.38 573.089L456.004 581.983C457.007 582.175 457.427 580.641 456.431 580.442L360.364 562.106C329.11 556.146 297.636 550.868 266.596 543.877C238.964 537.647 211.247 528.575 188.881 510.623C178.976 502.673 170.266 493.133 163.939 482.079C157.148 470.004 153.29 456.507 152.675 442.672C149.579 382.494 194.225 336.381 230.325 293.835C247.518 273.559 265.194 250.983 267.556 223.504C268.588 211.626 266.702 199.208 260.732 188.758C255.232 179.328 246.73 172.006 236.58 167.957C214.677 158.971 190.006 163.851 170.522 176.233C159.634 183.174 150.148 192.111 141.68 201.773C133.034 211.647 123.99 222.495 118.738 234.608C114.269 244.923 113.252 257.632 119.841 267.336C125.733 276.003 136.165 278.745 146.035 276.266C167.533 270.867 179.951 249.136 182.576 228.491C185.174 208.017 179.175 186.314 165.768 170.515C148.69 150.417 122.033 145.594 97.6604 139.811C74.5759 134.341 46.2326 125.112 36.8181 100.824C29.2964 81.4223 37.366 55.7126 56.9352 46.8325C76.7036 37.8458 103.645 51.8053 107.26 73.3236C111.601 99.1115 83.3785 117.44 60.5715 117.177C37.7645 116.914 15.4628 102.259 6.06244 81.5004C-3.70791 59.8898 3.15197 34.3151 19.3268 17.7341C27.1073 9.63703 37.1118 4.01665 48.0828 1.57945C49.1004 1.35922 48.6592 -0.175262 47.6772 0.016548Z" fill="#9A97ED"/>
</svg>
