<svg width="457" height="584" viewBox="0 0 457 584" fill="none" xmlns="http://www.w3.org/2000/svg">
<path d="M47.9111 0.711114C26.3858 5.35467 9.20531 22.8409 2.7982 43.6053C-3.83647 65.1164 2.86931 87.6942 19.4311 102.77C35.424 117.312 59.2533 124.174 79.9466 116.224C99.3031 108.786 116.121 87.5733 106.777 66.368C98.8835 48.4622 75.488 37.9947 57.2124 45.8098C38.9369 53.6249 30.0551 75.4987 33.3973 94.3858C37.6213 118.215 60.7751 131.364 81.9449 138.027C107.588 146.148 137.461 147.342 158.468 166.03C175.029 180.764 183.15 203.719 181.5 225.643C180.746 236.629 177.263 247.254 171.367 256.555C164.846 266.645 153.717 275.285 141.444 276.466C127.79 277.781 117.977 267.307 116.988 254.158C115.915 239.701 124.676 227.065 133.003 216.092C148.91 195.143 169.269 174.286 195.694 167.829C219.097 162.14 247.243 168.583 259.652 190.862C273.717 216.121 263.705 246.265 248.793 268.551C240.7 280.64 231.079 291.669 221.607 302.684C211.979 313.884 202.265 325.028 193.163 336.683C175.94 358.784 160.914 383.04 154.436 410.588C148.356 436.43 150.169 464.22 164.512 487.111C177.838 508.444 199.356 523.499 222.24 533.148C250.827 545.237 281.902 549.988 312.196 555.776L409.362 574.35L455.954 583.253C456.956 583.445 457.376 581.909 456.38 581.71L360.38 563.356C329.148 557.39 297.696 552.107 266.677 545.109C239.065 538.873 211.367 529.792 189.017 511.822C179.118 503.865 170.414 494.315 164.092 483.25C157.306 471.163 153.45 457.652 152.836 443.804C149.742 383.566 194.357 337.408 230.432 294.82C247.612 274.524 265.276 251.925 267.637 224.42C268.668 212.53 266.784 200.1 260.818 189.639C255.321 180.2 246.826 172.871 236.683 168.818C214.795 159.822 190.14 164.708 170.67 177.102C159.79 184.05 150.311 192.996 141.849 202.667C133.209 212.551 124.171 223.41 118.923 235.534C114.457 245.86 113.44 258.581 120.025 268.295C125.913 276.971 136.338 279.716 146.201 277.234C167.684 271.829 180.092 250.076 182.716 229.412C185.312 208.917 179.317 187.193 165.92 171.378C148.853 151.26 122.215 146.432 97.8595 140.644C74.7911 135.168 46.4675 125.931 37.0595 101.618C29.5431 82.1973 37.6071 56.4622 57.1626 47.5733C76.9173 38.5778 103.84 52.5511 107.452 74.0907C111.79 99.904 83.5875 118.251 60.7964 117.988C38.0053 117.724 15.7191 103.054 6.32531 82.2756C-3.43824 60.6436 3.41687 35.0436 19.5804 18.4462C27.3556 10.3411 37.3531 4.71517 48.3164 2.27556C49.3333 2.05511 48.8924 0.519114 47.9111 0.711114Z" fill="#D1ECFD"/>
</svg>
