<svg width="348" height="425" viewBox="0 0 348 425" fill="none" xmlns="http://www.w3.org/2000/svg">
<path fill-rule="evenodd" clip-rule="evenodd" d="M148.861 23.7947C152.157 15.5093 153.805 11.3666 156.567 8.31881C159.008 5.62587 162.058 3.55668 165.462 2.2844C169.315 0.844482 173.774 0.844482 182.691 0.844482H310.902C323.646 0.844482 330.019 0.844482 334.886 3.32469C339.168 5.50634 342.649 8.9875 344.831 13.2692C347.311 18.1369 347.311 24.5091 347.311 37.2534V388.436C347.311 401.18 347.311 407.552 344.831 412.42C342.649 416.701 339.168 420.183 334.886 422.364C330.019 424.844 323.646 424.844 310.902 424.844H42.9799C24.9957 424.844 16.0036 424.844 10.2917 421.063C5.29654 417.755 1.80708 412.612 0.58054 406.748C-0.821997 400.043 2.50194 391.687 9.14982 374.977L148.861 23.7947Z" fill="#5468E7"/>
</svg>
