<svg width="193" height="424" viewBox="0 0 193 424" fill="none" xmlns="http://www.w3.org/2000/svg">
<path fill-rule="evenodd" clip-rule="evenodd" d="M155.26 16.1369C157.578 10.3112 158.737 7.39833 160.679 5.25539C162.395 3.36192 164.539 1.90701 166.933 1.01244C169.642 0 172.777 0 179.047 0H325.4C334.361 0 338.841 0 342.264 1.7439C345.274 3.27787 347.722 5.72556 349.256 8.73615C351 12.1587 351 16.6392 351 25.6V398.4C351 407.361 351 411.841 349.256 415.264C347.722 418.274 345.274 420.722 342.264 422.256C338.841 424 334.361 424 325.4 424H30.7359C18.0908 424 11.7682 424 7.75203 421.341C4.23981 419.015 1.78628 415.399 0.92387 411.276C-0.0622883 406.561 2.27486 400.686 6.94915 388.937L155.26 16.1369Z" fill="#5468E7"/>
</svg>
