<svg width="488" height="598" viewBox="0 0 488 598" fill="none" xmlns="http://www.w3.org/2000/svg">
<path fill-rule="evenodd" clip-rule="evenodd" d="M209.185 32.3359C213.811 20.663 216.124 14.8266 220.009 10.5324C223.441 6.73816 227.733 3.82226 232.525 2.02926C237.949 0 244.227 0 256.783 0H436.8C454.722 0 463.683 0 470.528 3.48779C476.549 6.55574 481.444 11.4511 484.512 17.4723C488 24.3175 488 33.2783 488 51.2V546.8C488 564.722 488 573.682 484.512 580.528C481.444 586.549 476.549 591.444 470.528 594.512C463.683 598 454.722 598 436.8 598H60.3661C35.1068 598 22.4772 598 14.4484 592.689C7.42694 588.044 2.51878 580.819 0.787625 572.58C-1.19189 563.159 3.46137 551.418 12.7679 527.936L209.185 32.3359Z" fill="url(#paint0_linear_0_426)"/>
<defs>
<linearGradient id="paint0_linear_0_426" x1="-15" y1="0" x2="-15" y2="598" gradientUnits="userSpaceOnUse">
<stop stop-color="#3A8FFF"/>
<stop offset="1" stop-color="#0837AE"/>
</linearGradient>
</defs>
</svg>
